<?xml version="1.0" encoding="utf-8"?>
<!-- Generator: Adobe Illustrator 26.5.0, SVG Export Plug-In . SVG Version: 6.00 Build 0)  -->
<svg version="1.1" id="Layer_1" xmlns="http://www.w3.org/2000/svg" xmlns:xlink="http://www.w3.org/1999/xlink" x="0px" y="0px"
	 viewBox="0 0 1349 96" style="enable-background:new 0 0 1349 96;" xml:space="preserve">
<style type="text/css">
	.st0{fill:#CC0066;}
	.st1{opacity:0.5;fill:#CC0066;}
	.st2{opacity:0.5;fill:#CC0066;enable-background:new    ;}
</style>
<g>
	<path class="st0" d="M6.2,33.3c0,0.3,0,0.5,0,0.8c0,11.2,9.1,20.3,20.3,20.3c2.2,0,4.3-0.3,6.2-1v2v4v14.9c0,1.7,1.3,3,3,3
		s3-1.3,3-3v-24c0.7-0.5,1.4-1.1,2-1.7v11.3c0,1.7,1.3,3,3,3s3-1.3,3-3V34c0-5-1.8-9.6-4.9-13.2L6.2,33.3z"/>
	<polygon class="st0" points="6,31.4 41.7,19.2 35.6,1.6 27,14.2 15.1,0 15.2,18.7 0,14 	"/>
	<path class="st0" d="M5.8,40.3L5.4,96l25.3-34v-6c-1.6,0.4-3.3,0.6-5,0.6C15.9,56.6,7.7,49.6,5.8,40.3z"/>
	<path class="st1" d="M52.9,33.3c0,0.3,0,0.5,0,0.8c0,11.2,9.1,20.3,20.3,20.3c2.2,0,4.3-0.3,6.2-1v2v4v14.9c0,1.7,1.3,3,3,3
		s3-1.3,3-3v-24c0.7-0.5,1.4-1.1,2-1.7v11.3c0,1.7,1.3,3,3,3s3-1.3,3-3V34c0-5-1.8-9.6-4.9-13.2L52.9,33.3z"/>
	<polygon class="st1" points="52.8,31.4 88.4,19.2 82.3,1.6 73.7,14.2 61.8,0 61.9,18.7 46.7,14 	"/>
	<path class="st1" d="M52.5,40.3L52.1,96l25.3-34v-6c-1.6,0.4-3.3,0.6-5,0.6C62.6,56.6,54.4,49.6,52.5,40.3z"/>
	<polygon class="st2" points="99.5,31.4 135.1,19.2 129,1.6 120.4,14.2 108.5,0 108.6,18.7 93.4,14 	"/>
	<path class="st2" d="M135.3,20.9L99.7,33.3c0,0.3,0,0.5,0,0.8c0,11.2,9.1,20.3,20.3,20.3c2.2,0,4.3-0.3,6.2-1v2v4v14.9
		c0,1.7,1.3,3,3,3c1.7,0,3-1.3,3-3v-24c0.7-0.5,1.4-1.1,2-1.7v11.3c0,1.7,1.4,3,3,3c1.7,0,3-1.3,3-3V34
		C140.2,29,138.3,24.4,135.3,20.9z"/>
	<path class="st2" d="M99.3,40.3L98.9,96l25.3-34v-6c-1.6,0.4-3.3,0.6-5,0.6C109.3,56.6,101.1,49.6,99.3,40.3z"/>
</g>
<rect x="180.9" y="46.9" class="st0" width="8.8" height="3"/>
<rect x="198.4" y="46.9" class="st0" width="8.8" height="3"/>
<rect x="216" y="46.9" class="st0" width="8.8" height="3"/>
<rect x="233.6" y="46.9" class="st0" width="8.8" height="3"/>
<rect x="251.1" y="46.9" class="st0" width="8.8" height="3"/>
<rect x="268.7" y="46.9" class="st0" width="8.8" height="3"/>
<rect x="286.2" y="46.9" class="st0" width="8.8" height="3"/>
<rect x="303.8" y="46.9" class="st0" width="8.8" height="3"/>
<rect x="321.4" y="46.9" class="st0" width="8.8" height="3"/>
<rect x="338.9" y="46.9" class="st0" width="8.8" height="3"/>
<rect x="356.5" y="46.9" class="st0" width="8.8" height="3"/>
<rect x="374" y="46.9" class="st0" width="8.8" height="3"/>
<rect x="391.6" y="46.9" class="st0" width="8.8" height="3"/>
<rect x="409.1" y="46.9" class="st0" width="8.8" height="3"/>
<rect x="426.7" y="46.9" class="st0" width="8.8" height="3"/>
<rect x="444.3" y="46.9" class="st0" width="8.8" height="3"/>
<rect x="461.8" y="46.9" class="st0" width="8.8" height="3"/>
<rect x="479.4" y="46.9" class="st0" width="8.8" height="3"/>
<rect x="496.9" y="46.9" class="st0" width="8.8" height="3"/>
<rect x="514.5" y="46.9" class="st0" width="8.8" height="3"/>
<rect x="532.1" y="46.9" class="st0" width="8.8" height="3"/>
<rect x="549.6" y="46.9" class="st0" width="8.8" height="3"/>
<rect x="567.2" y="46.9" class="st0" width="8.8" height="3"/>
<rect x="584.7" y="46.9" class="st0" width="8.8" height="3"/>
<rect x="602.3" y="47" class="st0" width="8.8" height="3"/>
<rect x="619.9" y="47" class="st0" width="8.8" height="3"/>
<rect x="637.4" y="47" class="st0" width="8.8" height="3"/>
<rect x="655" y="47" class="st0" width="8.8" height="3"/>
<rect x="672.5" y="47" class="st0" width="8.8" height="3"/>
<rect x="690.1" y="47" class="st0" width="8.8" height="3"/>
<rect x="707.7" y="47" class="st0" width="8.8" height="3"/>
<rect x="725.2" y="47" class="st0" width="8.8" height="3"/>
<rect x="742.8" y="47" class="st0" width="8.8" height="3"/>
<rect x="760.3" y="47" class="st0" width="8.8" height="3"/>
<rect x="777.9" y="47" class="st0" width="8.8" height="3"/>
<rect x="795.5" y="47" class="st0" width="8.8" height="3"/>
<rect x="813" y="47" class="st0" width="8.8" height="3"/>
<rect x="830.6" y="47" class="st0" width="8.8" height="3"/>
<rect x="848.1" y="47" class="st0" width="8.8" height="3"/>
<rect x="865.7" y="47" class="st0" width="8.8" height="3"/>
<rect x="883.2" y="47" class="st0" width="8.8" height="3"/>
<rect x="900.8" y="47" class="st0" width="8.8" height="3"/>
<rect x="918.4" y="47" class="st0" width="8.8" height="3"/>
<rect x="935.9" y="47" class="st0" width="8.8" height="3"/>
<rect x="953.5" y="47" class="st0" width="8.8" height="3"/>
<rect x="971" y="47" class="st0" width="8.8" height="3"/>
<rect x="988.6" y="47" class="st0" width="8.8" height="3"/>
<rect x="1006.2" y="47" class="st0" width="8.8" height="3"/>
<rect x="1023.7" y="47" class="st0" width="8.8" height="3"/>
<rect x="1041.3" y="47" class="st0" width="8.8" height="3"/>
<rect x="1058.8" y="47" class="st0" width="8.8" height="3"/>
<rect x="1076.4" y="47" class="st0" width="8.8" height="3"/>
<rect x="1094" y="47" class="st0" width="8.8" height="3"/>
<rect x="1111.5" y="47" class="st0" width="8.8" height="3"/>
<rect x="1129.1" y="47" class="st0" width="8.8" height="3"/>
<rect x="1146.6" y="47" class="st0" width="8.8" height="3"/>
<rect x="1164.2" y="47" class="st0" width="8.8" height="3"/>
<rect x="1181.8" y="47" class="st0" width="8.8" height="3"/>
<rect x="1199.3" y="47" class="st0" width="8.8" height="3"/>
<rect x="1216.9" y="47" class="st0" width="8.8" height="3"/>
<rect x="1234.4" y="47" class="st0" width="8.8" height="3"/>
<rect x="1252" y="47" class="st0" width="8.8" height="3"/>
<rect x="1269.6" y="47" class="st0" width="8.8" height="3"/>
<rect x="1287.1" y="47" class="st0" width="8.8" height="3"/>
<rect x="1304.7" y="47" class="st0" width="8.8" height="3"/>
</svg>
