<?xml version="1.0" encoding="utf-8"?>
<!-- Generator: Adobe Illustrator 26.5.0, SVG Export Plug-In . SVG Version: 6.00 Build 0)  -->
<svg version="1.1" id="Layer_1" xmlns="http://www.w3.org/2000/svg" xmlns:xlink="http://www.w3.org/1999/xlink" x="0px" y="0px"
	 viewBox="0 0 1349 96" style="enable-background:new 0 0 1349 96;" xml:space="preserve">
<style type="text/css">
	.st0{fill:#CC0066;}
	.st1{opacity:0.5;fill:#CC0066;enable-background:new    ;}
	.st2{opacity:0.5;}
</style>
<path class="st0" d="M40.7,34v25.8c0,1.7,1.3,3,3,3s3-1.3,3-3V34H40.7z"/>
<path class="st0" d="M32.7,48.4v25.8c0,1.7,1.3,3,3,3s3-1.3,3-3V48.4H32.7z"/>
<path class="st0" d="M41.9,20.9L6.2,33.3c0,0.3,0,0.5,0,0.8c0,11.2,9.1,20.3,20.3,20.3s20.3-9.1,20.3-20.3
	C46.7,29,44.9,24.4,41.9,20.9z"/>
<polygon class="st0" points="6,31.4 41.7,19.2 35.6,1.6 27,14.2 15.1,0 15.2,18.7 0,14 "/>
<g>
	<path class="st0" d="M32.7,59.3l4.9-6.6c-1.5,1.1-3.1,2-4.9,2.6V59.3z"/>
	<path class="st0" d="M30.7,56c-1.6,0.4-3.3,0.6-5,0.6c-9.8,0-18-7-19.9-16.2L5.4,96l25.3-34V56z"/>
</g>
<path class="st0" d="M87.4,34v25.8c0,1.7,1.3,3,3,3s3-1.3,3-3V34H87.4z"/>
<path class="st0" d="M79.4,48.4v25.8c0,1.7,1.3,3,3,3s3-1.3,3-3V48.4H79.4z"/>
<path class="st0" d="M88.6,20.9L52.9,33.3c0,0.3,0,0.5,0,0.8c0,11.2,9.1,20.3,20.3,20.3s20.3-9.1,20.3-20.3
	C93.4,29,91.6,24.4,88.6,20.9z"/>
<polygon class="st0" points="52.8,31.4 88.4,19.2 82.3,1.6 73.7,14.2 61.8,0 61.9,18.7 46.7,14 "/>
<g>
	<path class="st0" d="M79.4,59.3l4.9-6.6c-1.5,1.1-3.1,2-4.9,2.6V59.3z"/>
	<path class="st0" d="M77.4,56c-1.6,0.4-3.3,0.6-5,0.6c-9.8,0-18-7-19.9-16.2L52.1,96l25.3-34V56z"/>
</g>
<polygon class="st1" points="99.5,31.4 135.1,19.2 129,1.6 120.4,14.2 108.5,0 108.6,18.7 93.4,14 "/>
<g class="st2">
	<path class="st0" d="M134.1,48.5v11.3c0,1.7,1.4,3,3,3c1.7,0,3-1.3,3-3V34C140.2,39.7,137.9,44.8,134.1,48.5z"/>
	<path class="st0" d="M126.1,55.3c1.8-0.6,3.4-1.5,4.9-2.6l-4.9,6.6v14.9c0,1.7,1.3,3,3,3s3-1.3,3-3v-24c-1.8,1.4-3.8,2.5-6,3.2
		L126.1,55.3L126.1,55.3z"/>
	<path class="st0" d="M140.2,34c0-5-1.8-9.6-4.9-13.2L99.7,33.3c0,0.3,0,0.5,0,0.8c0,11.2,9.1,20.3,20.3,20.3c2.2,0,4.3-0.3,6.2-1
		v-4.9h6v1.7c0.7-0.5,1.4-1.1,2-1.7V34H140.2z"/>
	<path class="st0" d="M140.2,34h-6v14.4C137.9,44.8,140.2,39.7,140.2,34z"/>
	<path class="st0" d="M126.1,48.4v4.9c2.2-0.7,4.2-1.8,6-3.2v-1.7L126.1,48.4L126.1,48.4z"/>
	<path class="st0" d="M126.1,55.3v4l4.9-6.6C129.5,53.8,127.9,54.7,126.1,55.3z"/>
	<path class="st0" d="M99.3,40.3L98.9,96l25.3-34v-6c-1.6,0.4-3.3,0.6-5,0.6C109.3,56.6,101.1,49.6,99.3,40.3z"/>
</g>
<rect x="180.9" y="46.9" class="st0" width="8.8" height="3"/>
<rect x="198.4" y="46.9" class="st0" width="8.8" height="3"/>
<rect x="216" y="46.9" class="st0" width="8.8" height="3"/>
<rect x="233.6" y="46.9" class="st0" width="8.8" height="3"/>
<rect x="251.1" y="46.9" class="st0" width="8.8" height="3"/>
<rect x="268.7" y="46.9" class="st0" width="8.8" height="3"/>
<rect x="286.2" y="46.9" class="st0" width="8.8" height="3"/>
<rect x="303.8" y="46.9" class="st0" width="8.8" height="3"/>
<rect x="321.4" y="46.9" class="st0" width="8.8" height="3"/>
<rect x="338.9" y="46.9" class="st0" width="8.8" height="3"/>
<rect x="356.5" y="46.9" class="st0" width="8.8" height="3"/>
<rect x="374" y="46.9" class="st0" width="8.8" height="3"/>
<rect x="391.6" y="46.9" class="st0" width="8.8" height="3"/>
<rect x="409.1" y="46.9" class="st0" width="8.8" height="3"/>
<rect x="426.7" y="46.9" class="st0" width="8.8" height="3"/>
<rect x="444.3" y="46.9" class="st0" width="8.8" height="3"/>
<rect x="461.8" y="46.9" class="st0" width="8.8" height="3"/>
<rect x="479.4" y="46.9" class="st0" width="8.8" height="3"/>
<rect x="496.9" y="46.9" class="st0" width="8.8" height="3"/>
<rect x="514.5" y="46.9" class="st0" width="8.8" height="3"/>
<rect x="532.1" y="46.9" class="st0" width="8.8" height="3"/>
<rect x="549.6" y="46.9" class="st0" width="8.8" height="3"/>
<rect x="567.2" y="46.9" class="st0" width="8.8" height="3"/>
<rect x="584.7" y="46.9" class="st0" width="8.8" height="3"/>
<rect x="602.3" y="47" class="st0" width="8.8" height="3"/>
<rect x="619.9" y="47" class="st0" width="8.8" height="3"/>
<rect x="637.4" y="47" class="st0" width="8.8" height="3"/>
<rect x="655" y="47" class="st0" width="8.8" height="3"/>
<rect x="672.5" y="47" class="st0" width="8.8" height="3"/>
<rect x="690.1" y="47" class="st0" width="8.8" height="3"/>
<rect x="707.7" y="47" class="st0" width="8.8" height="3"/>
<rect x="725.2" y="47" class="st0" width="8.8" height="3"/>
<rect x="742.8" y="47" class="st0" width="8.8" height="3"/>
<rect x="760.3" y="47" class="st0" width="8.8" height="3"/>
<rect x="777.9" y="47" class="st0" width="8.8" height="3"/>
<rect x="795.5" y="47" class="st0" width="8.8" height="3"/>
<rect x="813" y="47" class="st0" width="8.8" height="3"/>
<rect x="830.6" y="47" class="st0" width="8.8" height="3"/>
<rect x="848.1" y="47" class="st0" width="8.8" height="3"/>
<rect x="865.7" y="47" class="st0" width="8.8" height="3"/>
<rect x="883.2" y="47" class="st0" width="8.8" height="3"/>
<rect x="900.8" y="47" class="st0" width="8.8" height="3"/>
<rect x="918.4" y="47" class="st0" width="8.8" height="3"/>
<rect x="935.9" y="47" class="st0" width="8.8" height="3"/>
<rect x="953.5" y="47" class="st0" width="8.8" height="3"/>
<rect x="971" y="47" class="st0" width="8.8" height="3"/>
<rect x="988.6" y="47" class="st0" width="8.8" height="3"/>
<rect x="1006.2" y="47" class="st0" width="8.8" height="3"/>
<rect x="1023.7" y="47" class="st0" width="8.8" height="3"/>
<rect x="1041.3" y="47" class="st0" width="8.8" height="3"/>
<rect x="1058.8" y="47" class="st0" width="8.8" height="3"/>
<rect x="1076.4" y="47" class="st0" width="8.8" height="3"/>
<rect x="1094" y="47" class="st0" width="8.8" height="3"/>
<rect x="1111.5" y="47" class="st0" width="8.8" height="3"/>
<rect x="1129.1" y="47" class="st0" width="8.8" height="3"/>
<rect x="1146.6" y="47" class="st0" width="8.8" height="3"/>
<rect x="1164.2" y="47" class="st0" width="8.8" height="3"/>
<rect x="1181.8" y="47" class="st0" width="8.8" height="3"/>
<rect x="1199.3" y="47" class="st0" width="8.8" height="3"/>
<rect x="1216.9" y="47" class="st0" width="8.8" height="3"/>
<rect x="1234.4" y="47" class="st0" width="8.8" height="3"/>
<rect x="1252" y="47" class="st0" width="8.8" height="3"/>
<rect x="1269.6" y="47" class="st0" width="8.8" height="3"/>
<rect x="1287.1" y="47" class="st0" width="8.8" height="3"/>
<rect x="1304.7" y="47" class="st0" width="8.8" height="3"/>
</svg>
