<?xml version="1.0" encoding="utf-8"?>
<!-- Generator: Adobe Illustrator 27.0.0, SVG Export Plug-In . SVG Version: 6.00 Build 0)  -->
<svg version="1.1" id="Layer_1" xmlns="http://www.w3.org/2000/svg" xmlns:xlink="http://www.w3.org/1999/xlink" x="0px" y="0px"
	 viewBox="0 0 372.6 52" style="enable-background:new 0 0 372.6 52;" xml:space="preserve">
<style type="text/css">
	.st0{fill:#E2E2E2;}
	.st1{enable-background:new    ;}
</style>
<g>
	<path class="st0" d="M55.6,1c0,0-1.5-2.4-8.6,1.3c-0.6,0.4-1.1,0.7-1.5,1.3c-0.9,1.3-3.4,4.1-9,4.7L35.2,9l1.7,2.8L55.6,1z"/>
	<polygon class="st0" points="16.4,50.8 24.6,50.8 24.6,21.3 16.4,26 	"/>
	<polygon class="st0" points="28.5,27.3 34.5,27.3 34.5,50.8 42.9,50.8 42.9,27.3 48.9,27.3 48.9,20.2 28.5,20.2 	"/>
	<path class="st0" d="M62.5,27.3H70V20H52.6v30.8h7.8v-9.5c0-1.5,0.6-2.2,2.1-2.2h6.2v-7.3h-6.3c-1.3,0-1.9-0.7-1.9-2.2
		C60.4,28.1,61,27.3,62.5,27.3z"/>
	<path class="st0" d="M35.1,13l-1.7-2.8l-0.7-1.3c-1.5-2.8-5-3.7-7.8-2.2L4.3,18.4c-2.8,1.5-3.7,5-2.2,7.8l2.4,4.3l29.1-16.8
		L35.1,13z"/>
</g>
<g class="st1">
	<path class="st0" d="M110.8,19.7h8.4v31.2h-8.4V19.7z"/>
	<path class="st0" d="M124.8,29.4h7.5v2.2c3.5-4.3,13.8-3.9,13.8,5.8v13.2h-7.5V38.1c0-1.9-1.1-3-3-3h-0.2c-2.2,0-3,0.9-3,3v12.5
		h-7.7L124.8,29.4L124.8,29.4z"/>
	<path class="st0" d="M153.6,42.1v-6h-3.2v-6.7h3.2v-6.2h7.5v6.2h5v6.7h-5v8l5-1.9v7.5c0,0-3.4,1.7-5.8,1.7
		C154.1,51.2,153.6,47.1,153.6,42.1z"/>
	<path class="st0" d="M173.7,31.6c4.3-4.3,13.2-4.3,17.5,0c4.7,4.1,4.5,12.5,0,16.4c-4.3,4.3-13.2,4.3-17.5,0
		C169.2,44.3,169.2,35.7,173.7,31.6z M182.3,43.7h0.2c2.6,0,3.9-1.3,3.9-3.7c0-2.4-1.3-3.7-3.9-3.7h-0.2c-2.6,0-3.9,1.3-3.9,3.7
		C178.4,42.4,179.7,43.7,182.3,43.7z"/>
	<path class="st0" d="M213.6,42.1v-6h-3.4v-6.7h3.2v-6.2h7.5v6.2h5v6.7h-5v8l5-1.9v7.5c0,0-3.4,1.7-5.8,1.7
		C214.2,51.2,213.6,47.1,213.6,42.1z"/>
	<path class="st0" d="M231.4,21.5h7.5v10.1c0,0,1.7-2.6,6.2-2.6c7.8,0,7.8,5.4,7.8,8.4v13.4h-7.5V38.3c0-1.9-0.9-3-3-3h-0.2
		c-2.2,0-3,0.9-3,3v12.3h-7.5L231.4,21.5L231.4,21.5z"/>
	<path class="st0" d="M256.4,40c0-9,6.9-11,11.2-11c9.7,0,11.2,8.8,10.8,13.4h-14.7c0,1.3,1.3,3.4,3.7,3.4h0.4
		c2.4,0,3.2-1.5,3.2-1.5h7.1c-1.5,5.2-6,7.5-10.3,7.5C264.4,51.6,256.4,49.9,256.4,40z M271.3,37.6c-0.2-2.1-1.7-3-3.7-3l0,0
		c-1.9,0-3.5,0.9-3.7,3H271.3z"/>
	<path class="st0" d="M295.9,19.7h17.5v7.5h-7.7c-1.3,0-1.9,0.7-1.9,2.2s0.7,2.2,1.9,2.2h6.2v7.5h-6.2c-1.3,0-2.1,0.7-2.1,2.4v9.7
		h-7.8L295.9,19.7L295.9,19.7z"/>
	<path class="st0" d="M321.3,18.4h0.2c3,0,4.5,1.5,4.5,4.3s-1.3,4.1-4.5,4.1h-0.2c-3,0-4.5-1.3-4.5-4.3
		C316.8,19.9,318.3,18.4,321.3,18.4z M317.8,29.4h7.5v21.5h-7.5V29.4z"/>
	<path class="st0" d="M330.7,29.4h7.5V32c2.2-3,5.2-3,6.3-3v6.9h-1.9c-3,0-4.7,1.9-4.7,5.6v9.1h-7.5L330.7,29.4L330.7,29.4z"/>
	<path class="st0" d="M347.1,40c0-9,6.9-11,11.2-11c9.7,0,11.2,8.8,10.8,13.4h-14.7c0,1.3,1.3,3.4,3.7,3.4h0.4
		c2.4,0,3.2-1.5,3.2-1.5h7.1c-1.5,5.2-6,7.5-10.3,7.5C355.1,51.6,347.1,49.9,347.1,40z M362,37.6c-0.2-2.1-1.7-3-3.7-3l0,0
		c-1.9,0-3.5,0.9-3.7,3H362z"/>
</g>
</svg>
