<?xml version="1.0" encoding="utf-8"?>
<!-- Generator: Adobe Illustrator 27.0.0, SVG Export Plug-In . SVG Version: 6.00 Build 0)  -->
<svg version="1.1" id="Layer_1" xmlns="http://www.w3.org/2000/svg" xmlns:xlink="http://www.w3.org/1999/xlink" x="0px" y="0px"
	 viewBox="0 0 288 288" style="enable-background:new 0 0 288 288;" xml:space="preserve">
<style type="text/css">
	.st0{fill:#1E1E1E;}
</style>
<g>
	<path class="st0" d="M214.2,41.4c0,0-5.7-9.1-32.8,5c-2.3,1.5-4.2,2.7-5.7,5c-3.4,5-13,15.6-34.3,17.9l-5,2.7l6.5,10.7L214.2,41.4z
		"/>
	<polygon class="st0" points="64.7,231.2 96,231.2 96,118.8 64.7,136.7 	"/>
	<polygon class="st0" points="110.9,141.6 133.7,141.6 133.7,231.2 165.7,231.2 165.7,141.6 188.6,141.6 188.6,114.6 110.9,114.6 	
		"/>
	<path class="st0" d="M240.5,141.6H269v-27.8h-66.3v117.4h29.7V195c0-5.7,2.3-8.4,8-8.4h23.6v-27.8h-24c-5,0-7.2-2.7-7.2-8.4
		C232.4,144.7,234.7,141.6,240.5,141.6z"/>
	<path class="st0" d="M136,87.1l-6.5-10.7l-2.7-5c-5.7-10.7-19.1-14.1-29.7-8.4l-78.5,44.6c-10.7,5.7-14.1,19.1-8.4,29.7l9.1,16.4
		l110.9-64L136,87.1z"/>
</g>
</svg>
