<?xml version="1.0" encoding="utf-8"?>
<!-- Generator: Adobe Illustrator 27.0.1, SVG Export Plug-In . SVG Version: 6.00 Build 0)  -->
<svg version="1.1" id="Layer_1" xmlns="http://www.w3.org/2000/svg" xmlns:xlink="http://www.w3.org/1999/xlink" x="0px" y="0px"
	 viewBox="0 0 1440 1024" style="enable-background:new 0 0 1440 1024;" xml:space="preserve">
<style type="text/css">
	.st0{fill:#010101;}
	.st1{fill:none;stroke:#030303;stroke-width:0.7337;stroke-miterlimit:10;}
	.st2{fill:#010101;stroke:#231F20;stroke-width:0.7337;stroke-miterlimit:10;}
	.st3{fill:none;stroke:#010101;stroke-width:0.7337;stroke-miterlimit:10;}
	.st4{fill:none;stroke:#231F20;stroke-width:0.7337;stroke-miterlimit:10;}
</style>
<path class="st0" d="M40.5,899.1c0,0,12.7-7.5,23.6,8c0,0,2.9-11.6,13.8-9.8l7.5-6.8l2.9-71.2h5.2l-4-5.7l44.8-16.1h4.6v6.3
	l10.3,2.9l10.9,3.4l5.2,12.6l8-1.7l3.4,0.6l5.2,0.6l12.1-5.2c0,0,1.7-1.7,5.2-1.7c3.4,0,13.8,0,13.8,0l5.7-0.6v-4l14.9,1.1v7.5
	l11.5,2.9v9.8l6.9,26.4l2.9,15.5l11.5,1.1l3.8,10.3l13.4,16.7l14.9-2.3h14.4l9.2-12.1l-10.3-1.1l7.5-8h13.2l6.3-0.6l11.5-15.9
	l-2.9-9.6v-11.2v-7.5l-9.8-5.7l-5.2,0.6h-8l4.6-5.7l8-0.6l7.5-0.6l-0.6-9.2l-1.7-6.3l-8-3.4l4-5.2l2.9-2.9l-2.3-4l-10.3,2.9
	l-2.9-2.9l7.5-5.7l39-10.3l4.6-4.6c0,0,7.5,3.4,9.8,4c2.3,0.6,7.5-4,7.5-4l23.5,10.9l4.8-1.1l0.4,47.7l-6.8,8.6c0,0,0,19.5,0,21.2
	c0,1.7,3.4,16.1,3.4,16.1l18.4,6.3l16.1,12.6l25.3,2.9l4.6,4.6l10.3,7.5l6,8l7.8,5.7l28.7-7.5h9.2l5.2-17.2l5.2-6.9l3.4,4.6l6.9-6.9
	l5.7,0.6l-4.6,12.6l4.6,13.8l8.6-25.3h2.9v-12.1l15.5-8.6v-9.8h5.7v-4.6l7.5,1.7l10.9-35.6l2.9-2.9l3.4-5.2l6.3-6.3l5.2-10.3
	l5.2-2.9l5.2-14.4V798l2.9,10.9l7.5,7.5v4.6l7.5,4.6c0,0-2.3,17.8-2.3,19.8s4,22.7,2.3,24.4c-1.7,1.7-3.4,17.8-3.4,17.8l3.9,9.8
	l-3.3,14.4c0,0,4.9,5.2,3.3,6.9c-1.6,1.7,0.3,5.2,0.3,5.2h9l5.2-10.9l7.2-2.3l6-10.9l5.2-5.2l3.4,2.3v9.8v9.2l6.3,12.6l10.3,6.3
	v-14.4l12.6,4l10.3-6.3l-9.2-37.9l-1.7-18.2l-8.6-5.9l59.7-29.9l22.4,26.1l-4.2,12.9l11.1,23.5l5.7,10.9l18.4,8l6.9,14.4l18.9,1.1
	l-21.8,32.7l9.8,1020.9l-921-25.3c0,0,18.4-489.2,18.4-512.2S-13.3,918-13.3,918L40.5,899.1z"/>
<path class="st0" d="M829.5,905.1c0,0,12.7-7.5,23.6,8c0,0,2.9-11.6,13.8-9.8l7.5-6.8l2.9-71.2h5.2l-4-5.7l44.8-16.1h4.6v6.3
	l10.3,2.9l10.9,3.4l5.2,12.6l8-1.7l3.4,0.6l5.2,0.6l12.1-5.2c0,0,1.7-1.7,5.2-1.7c3.4,0,13.8,0,13.8,0l5.7-0.6v-4l14.9,1.1v7.5
	l11.5,2.9v9.8l6.9,26.4l2.9,15.5l11.5,1.1l3.8,10.3l13.4,16.7l14.9-2.3h14.4l9.2-12.1l-10.3-1.1l7.5-8h13.2l6.3-0.6l11.5-15.9
	l-2.9-9.6v-11.2v-7.5l-9.8-5.7l-5.2,0.6h-8l4.6-5.7l8-0.6l7.5-0.6l-0.6-9.2l-1.7-6.3l-8-3.4l4-5.2l2.9-2.9l-2.3-4l-10.3,2.9
	l-2.9-2.9l7.5-5.7l39-10.3l4.6-4.6c0,0,7.5,3.4,9.8,4c2.3,0.6,7.5-4,7.5-4l23.5,10.9l4.8-1.1l0.4,47.7l-6.8,8.6c0,0,0,19.5,0,21.2
	c0,1.7,3.4,16.1,3.4,16.1l18.4,6.3l16.1,12.6l25.3,2.9l4.6,4.6l10.3,7.5l6,8l7.8,5.7l28.7-7.5h9.2l5.2-17.2l5.2-6.9l3.4,4.6l6.9-6.9
	l5.7,0.6l-4.6,12.6l4.6,13.8l8.6-25.3h2.9v-12.1l15.5-8.6v-9.8h5.7v-4.6l7.5,1.7l10.9-35.6l2.9-2.9l3.4-5.2l6.3-6.3l5.2-10.3
	l5.2-2.9l5.2-14.4V804l2.9,10.9l7.5,7.5v4.6l7.5,4.6c0,0-2.3,17.8-2.3,19.8s4,22.7,2.3,24.4c-1.7,1.7-3.4,17.8-3.4,17.8l3.9,9.8
	l-3.3,14.4c0,0,4.9,5.2,3.3,6.9s0.3,5.2,0.3,5.2h9l5.2-10.9l7.2-2.3l6-10.9l5.2-5.2l3.4,2.3v9.8v9.2l6.3,12.6l10.3,6.3v-14.4l12.6,4
	l10.3-6.3l-9.2-37.9l-1.7-18.2l-8.6-5.9l59.7-29.9l22.4,26.1l-4.2,12.9l11.1,23.5l5.7,10.9l18.4,8l6.9,14.4l18.9,1.1l-21.8,32.7
	l9.8,1020.9l-921-25.3c0,0,18.4-489.2,18.4-512.2c0-23,36.7-521.4,36.7-521.4L829.5,905.1z"/>
<path class="st1" d="M312.9,904.7c-6-12.2-8.8-26-7.7-39.6c0.8-10.4,2.1-20.2-5.5-28.7c-0.8-0.9-1.6-1.7-2.2-2.7
	c-1.5-2.5-1.2-5.7-0.9-8.6"/>
<path class="st1" d="M306.2,854.1c1-8,1.9-16.3-0.1-24.1c-0.6-2.4-1.5-4.7-2.1-7.1c-1.5-6.3-0.6-13.1,2.4-18.8"/>
<path class="st1" d="M304.5,871.9c-1.5-2.5-5-2.9-7.1-4.9c-1.8-1.7-2.3-4.3-3.4-6.6c-1.6-3.2-4.6-5.7-8.1-6.7"/>
<path class="st1" d="M306,865.6c1.3-2.1,2.8-4.3,5.2-4.8c1.1-0.2,2.3-0.1,3.3-0.7c0.8-0.5,1.1-1.4,1.4-2.3c0.4-1.1,0.8-2.1,1.2-3.2"
	/>
<path class="st1" d="M292.3,858.3c0.4-2.8,0.7-6.2-1.4-8.1c-0.6-0.6-1.3-0.9-1.8-1.6s-0.7-1.7-0.1-2.2"/>
<path class="st2" d="M297.6,832.4c1.6-1.5,2.4-3.7,2.1-5.9"/>
<path class="st1" d="M306,827.7c0.5-4,2.1-7.9,4.7-11"/>
<path class="st1" d="M315.9,858.4c-1.8-0.9-2.1-3.3-2-5.4c0.1-2,0.5-4.2-0.7-5.9"/>
<g>
	<path class="st0" d="M489.8,916.3c1.3-6.5-0.9-12.7-2.8-19c-2.3-6.6-3.7-14.1-3.6-21.2c0.1-19.3,0.8-43.4,1.1-62.7
		c0.1-3.5,0.2-7,0.6-10.5c0.9-7,2.9-13.6,3.7-20.6c1.3-10.3-1-21-6.2-30c3.7,5.9,6.1,12.6,7.1,19.6c1.6,10.5-1.8,20.8-2.7,31.2
		c-0.6,6.8,0.1,24.1,0.1,31.2c0.1,6.9,0.4,24.6,0.5,31.3c0.1,6.8,0.1,13.7,1.5,20.4c1.4,6.8,4.5,13,6.1,19.9
		c0.9,3.7,1.2,7.7,0.5,11.5C495.5,917.4,489.8,916.3,489.8,916.3L489.8,916.3z"/>
</g>
<path class="st3" d="M486,836.9c-9.5-7.1-18.9-14.2-28.4-21.3c-3-2.3-6.2-4.7-7.7-8.3c-1.5-3.6-0.9-7.7-1.8-11.6
	c-1.6-7.2-7.9-12.4-14-16.5c-3.3-2.2-6.8-4.3-9.4-7.4c-2.6-3.1-4-7.4-2.7-11.1"/>
<path class="st3" d="M485.3,810.3c10.4-9,22.1-16.4,34.6-22c4.7-2.1,9.9-4.3,12.2-8.9c0.6-1.2,0.9-2.4,1.6-3.5c1-1.6,2.7-2.7,4-4.2
	c1.3-1.4,2.3-3.5,1.6-5.2"/>
<path class="st3" d="M475.4,828.1c-0.7-8.2-2-16.6-6.2-23.7c-1.4-2.4-3.2-4.7-3.5-7.5c-0.4-4.4,3.1-8.4,3.2-12.8
	c0.1-3.4-2-6.8-5.1-8.2"/>
<path class="st3" d="M464.9,821.4c-2.7,3.2-7.2,4.5-11.5,4.2s-8.2-1.9-12.1-3.6c-1.9-0.8-3.8-1.8-4.9-3.5c-2.1-3.4,0.3-8.1-1-11.9
	c-1.3-3.9-5.8-5.5-9.8-6.6"/>
<path class="st3" d="M465.6,794.3c-1.8-0.7-3.6-1.4-5.4-2.2c-0.5-0.2-1-0.5-1.3-0.9c-0.7-0.8-0.6-2.1-0.2-3.1s0.9-2,1-3.1
	c0.1-1.6-0.9-3.1-2.1-4.2s-2.7-1.8-4-2.8c-2.3-1.8-4-4.6-4.4-7.5"/>
<path class="st3" d="M468.4,779c-0.5-1.9-0.6-3.9-0.4-5.9c0.1-1,0.4-2.1,0.2-3.1c-0.4-2.4-3-4.8-1.8-6.9"/>
<path class="st3" d="M515.1,790.1c-0.5-2.1-0.9-4.2-0.8-6.3c0.2-2.1,1.1-4.3,2.9-5.4c0.9-0.6,2-0.9,2.6-1.8c0.5-0.7,0.5-1.6,0.5-2.5
	c0-2.9,0-5.9-0.1-8.8"/>
<path class="st4" d="M534.4,775.6c3.7,2.8,8.9,1.7,13.5,1.2c4.6-0.5,9.2-0.1,13.6,0.9"/>
<path class="st4" d="M537.1,772.5c1.5,0.4,3.1,0.2,4.4-0.6c1.3-0.8,2.2-2.3,2.1-3.8c0-0.5-0.2-1,0-1.5c0.2-0.5,0.8-0.8,1.3-1.1
	c1.8-0.9,3.6-1.7,5.5-2.6"/>
<path class="st3" d="M514.6,780.2c-1.4-2.4-2-5.3-1.7-8.1c0.1-0.4,0.1-0.8,0.4-1.2c0.3-0.4,0.7-0.5,1.1-0.8c1.1-0.7,1.4-2.2,1.2-3.5
	s-1-2.4-1.7-3.5"/>
<path class="st3" d="M486.4,865c3.6-3.5,8.3-5.8,13.2-6.5c2.1-0.3,4.2-0.4,6.3-0.6c5.4-0.5,10.9-2.3,14.6-6.2"/>
<path class="st0" d="M202.2,623.3c0,0,18.4,11.5,36,16.5s40.2,27.6,40.2,27.6l-19.1,4.6l-21.4-10l-3.1,1.5c0,0,16.5,15.3,1.9,13.8
	l-2.7,0.1l6.3,5.3l5.6,23.7c0,0,59.2,69.1,76.3,196.7c0.1,0.5,0.1,1.1,0.2,1.6c16.8,128.6-5.4,4.6-5.4,4.6S306.9,781.4,238.9,709
	l-3.3-24.9l-4.8-4.3l-16.6,9.4c0,0,60.2,103.4,31.5,173.6l-1.9-8.3c0,0,11.5-95.7-37.9-163.9c0,0-1.1-5,0.8-5.7c1.9-0.8,5-2.3,5-2.3
	l-17.2,2.7c0,0-84.6,97.6-67.4,127.5c17.2,29.8-10.3-1.5-10.3-1.5v-5.4c0,0,37.9-106.4,74.3-123.3c0,0,20.3-2.7,21.8-6.9
	c0,0-15.7,0.8-16.8-7.3l5.7-8.4c0,0,14,5.4,21,1.9l5.1-0.4l1.5-5.7c0,0-24.1-16.5-27.6-24.5L202.2,623.3z"/>
<g>
	<path class="st0" d="M250.5,662.9c-1.6,2.1-2.2,4.7-2.1,7.4c0.2,5.5,2,11,2.1,16.5c0.1,5.5,0.7,11,3.9,15.7
		c6,8.7,15.3,17.7,26.7,16.5c11.3-1,20-9.4,27.5-17.3c5.6-5.8,12-12.8,11.2-21.4c1,8.7-5.4,15.7-11,21.6c-7.5,8-16.1,16.6-27.6,17.7
		c-11.7,1.3-21.3-7.8-27.6-16.6c-1.6-2.4-2.8-5-3.4-7.8c-0.9-4.2-0.7-8.3-1.2-12.5c-0.9-6.8-4.1-14.5,0.4-20.8
		C249.3,662,250.5,662.9,250.5,662.9L250.5,662.9z"/>
</g>
<path class="st3" d="M227.2,650.4c-6.6,8.4-12.1,17.7-16.4,27.5c-3.3,7.5-5.9,15.4-10.2,22.4c-3.5,5.7-8.2,10.7-11.3,16.6
	c-2.3,4.4-3.8,9.1-5.3,13.8c-4,12.9-8,25.7-12,38.6c-2,6.3-3.9,12.6-6.3,18.7c-2.8,7.3-6.3,14.4-9.7,21.5
	c-4.5,9.2-9.4,18.8-18.1,24.1"/>
<path class="st3" d="M232.6,669.9c-2.6,8.8,0.9,18.1,1.8,27.3c0.5,5.7,0.1,11.5-0.4,17.2c-1.4,17.7-2.9,35.5-8,52.5
	c-9.1,30.6-29.1,56.6-48.7,81.8"/>
<path class="st3" d="M219.7,669.5c-1.5,8.7-7.8,15.8-14.5,21.4c-6.8,5.7-14.3,10.5-19.8,17.4c-3.7,4.6-6.4,10.1-10.4,14.5
	c-3.6,4-8.2,6.9-12.6,10.1c-14.5,10.3-27.4,23-38,37.3c-10.8,14.6-19.2,30.9-30.1,45.5c-17.4,23.3-40.5,41.5-63.4,59.5"/>
<path class="st3" d="M237.4,654.3c-15.6,22.1-13.7,53-29.3,75.2c-4.1,5.9-9.4,11-14.6,15.9c-10.3,9.6-20.8,19-32.3,27
	c-5,3.5-10.2,6.7-14.6,10.9c-13.1,12.7-16.2,32.2-18.6,50.3"/>
<path class="st0" d="M1313.5,695c0,0-18.4,11.5-36,16.5s-40.2,27.6-40.2,27.6l19.1,4.6l21.4-10l3.1,1.5c0,0-16.5,15.3-1.9,13.8
	l2.7,0.1l-6.3,5.3l-5.6,23.7c0,0-59.2,69.1-76.3,196.7c-0.1,0.5-0.1,1.1-0.2,1.6c-16.8,128.6,5.4,4.6,5.4,4.6s10.1-127.9,78.1-200.2
	l3.3-24.9l4.8-4.3l16.6,9.4c0,0-60.2,103.4-31.5,173.6l1.9-8.3c0,0-11.5-95.7,37.9-163.9c0,0,1.1-5-0.8-5.7s-5-2.3-5-2.3l17.2,2.7
	c0,0,84.6,97.6,67.4,127.5c-17.2,29.8,10.3-1.5,10.3-1.5v-5.4c0,0-37.9-106.4-74.3-123.3c0,0-20.3-2.7-21.8-6.9
	c0,0,15.7,0.8,16.8-7.3l-5.7-8.4c0,0-14,5.4-21,1.9l-5.1-0.4l-1.5-5.7c0,0,24.1-16.5,27.6-24.5L1313.5,695z"/>
<g>
	<path class="st0" d="M1266.4,733.7c5.2,7.6,0,16.6,0,24.9c-0.1,5.6-0.9,11.5-4.3,16.2c-6.3,8.9-15.9,17.9-27.6,16.6
		c-11.5-1.2-20.1-9.7-27.6-17.7c-5.5-5.9-11.9-13-11-21.6c-0.9,8.7,5.6,15.6,11.2,21.4c7.5,7.9,16.1,16.3,27.5,17.3
		c8.5,0.9,16-4.1,21.5-10.1c3.7-4,7.2-8.5,8.3-13.9c0.9-4,0.6-8.3,1.1-12.4c0.7-6.4,3.8-14-0.3-19.7
		C1265.2,734.6,1266.4,733.7,1266.4,733.7L1266.4,733.7z"/>
</g>
<path class="st3" d="M1288.5,722.2c6.6,8.4,12.1,17.7,16.4,27.5c3.3,7.5,5.9,15.4,10.2,22.4c3.5,5.7,8.2,10.7,11.3,16.6
	c2.3,4.4,3.8,9.1,5.3,13.8c4,12.9,8,25.7,12,38.6c2,6.3,3.9,12.6,6.3,18.7c2.8,7.3,6.3,14.4,9.7,21.5c4.5,9.2,9.4,18.8,18.1,24.1"/>
<path class="st3" d="M1283.1,741.6c2.6,8.8-0.9,18.1-1.8,27.3c-0.5,5.7-0.1,11.5,0.4,17.2c1.4,17.7,2.9,35.5,8,52.5
	c9.1,30.6,29.1,56.6,48.7,81.8"/>
<path class="st3" d="M1296,741.2c1.5,8.7,7.8,15.8,14.5,21.4s14.3,10.5,19.8,17.4c3.7,4.6,6.4,10.1,10.4,14.5
	c3.6,4,8.2,6.9,12.6,10.1c14.5,10.3,27.4,23,38,37.3c10.8,14.6,19.2,30.9,30.1,45.5c17.4,23.3,40.5,41.5,63.4,59.5"/>
<path class="st3" d="M1278.3,726c15.6,22.1,13.7,53,29.3,75.2c4.1,5.9,9.4,11,14.6,15.9c10.3,9.6,20.8,19,32.3,27
	c5,3.5,10.2,6.7,14.6,10.9c13.1,12.7,16.2,32.2,18.6,50.3"/>
</svg>
