<?xml version="1.0" encoding="utf-8"?>
<!-- Generator: Adobe Illustrator 27.0.1, SVG Export Plug-In . SVG Version: 6.00 Build 0)  -->
<svg version="1.1" xmlns="http://www.w3.org/2000/svg" xmlns:xlink="http://www.w3.org/1999/xlink" x="0px" y="0px"
	 viewBox="0 0 828 576" style="enable-background:new 0 0 828 576;" xml:space="preserve">
<style type="text/css">
	.st0{fill:#0D0D0D;}
	.st1{display:none;}
	.st2{display:inline;fill:none;}
	.st3{display:inline;}
	.st4{font-family:'Chainprinter-Regular';}
	.st5{font-size:27.5908px;}
</style>
<g id="type">
	<g>
		<path class="st0" d="M363.8,386.8"/>
	</g>
	<g>
		<path class="st0" d="M32.2,452.4c0,0,30-115.6,33.2-151.4c0,0,45-3.8,64.8-34.5c0,0-20.4,14.7-62,13.1c0,0,13.9-106.2,58.6-135.5
			c4.6-3,10.1-4.3,15.4-3c8.8,2.1,19.8,10.8,15.4,42.3c0,0,22.2-25.7-3-50.7c-3.9-3.8-8.7-6.5-14.1-7.3
			c-10.8-1.6-29.3,1.7-49.3,32.6c-8.8,13.7-15.1,28.8-19,44.6L53,280.9c0,0-29.1,5.4-43.1,29.4c0,0,26.2-11.8,38.3-5.7l-7.9,73
			L32.2,452.4z"/>
	</g>
	<g>
		<path class="st0" d="M156.2,205.5c0,0-28.1,100.3-105.4,246.9c0,0,80.4-28.9,119.8-22.1c35.5,6.1,186.2-32.8,199-47.2
			c0,0-184.3,43.2-210.7,35.1c-24-7.3-81.2,10.3-83.7,12.2S138.3,312.2,156.2,205.5z"/>
	</g>
	<g>
		<path class="st0" d="M184.3,295.8C144.1,280,122.1,343,122.1,343s21-34.1,47.6-37.1c12.2-1.4,22.1,10.5,17.7,22
			c0,0.1-0.1,0.1-0.1,0.2c-0.7,1.7-2.5,2.7-4.3,2.3c-9.4-2-44.4-6.3-56,36.3c-2.3,8.4,2.9,17.2,11.4,18.7
			c9.7,1.8,25.8-3.7,51.1-32.6C189.4,352.8,224.6,311.6,184.3,295.8z M163.5,365.1c-13.8,12.5-20.3,10-22.5,7.6
			c-2.2-2.4-4.4-10.7,9.4-23.1c13.8-12.5,22.7-11.8,24.9-9.3C177.6,342.6,177.3,352.6,163.5,365.1z"/>
	</g>
	<g>
		<path class="st0" d="M235.8,293.2c-3.8,0.4,39.4-85.3-25.7-107.5c0,0,37.5,20.2,25.6,68.3c-7.9,31.8-18.7,65.8-25.5,86.4
			c-5.6,17.1,7.1,35.1,25.1,34.5c11.4-0.3,23.7-8.3,32.7-34.1C290,277.4,235.8,293.2,235.8,293.2z M251.2,336.9
			c-7.3,20.8-15.9,21.9-19.7,20.5c-3.9-1.4-11.3-8.9-3.9-29.7c7.3-20.8,17.5-25.1,21.4-23.8C252.7,305.3,258.5,316,251.2,336.9z"/>
	</g>
	<g>
		<path class="st0" d="M742.5,350c5.7,26.7,16.9,36.1,28.2,37.9c17.8,2.8,32.7-13.5,29.2-31.2c-4.2-21.3-10.7-56.4-14.6-88.9
			c-5.9-49.2,33.8-64.7,33.8-64.7C751.8,217,784,307.4,780.3,306.6C780.3,306.6,728.5,284.2,742.5,350z M766,315.6
			c4-0.9,13.6,4.6,18.2,26.2c4.7,21.6-3.6,28.1-7.6,29c-4,0.9-12.4-1.2-17-22.8C754.9,326.4,762,316.4,766,315.6z"/>
	</g>
	<g>
		<path class="st0" d="M303.5,281.8c-3.8,0.4,39.4-85.3-25.7-107.5c0,0,37.5,20.2,25.6,68.3c-7.9,31.8-18.7,65.8-25.5,86.4
			c-5.6,17.1,7.1,35.1,25.1,34.5c11.4-0.3,23.7-8.3,32.7-34.1C357.7,266,303.5,281.8,303.5,281.8z M318.9,325.4
			c-7.3,20.8-15.9,21.9-19.7,20.5c-3.9-1.4-11.3-8.9-3.9-29.7c7.3-20.8,17.5-25.1,21.4-23.8C320.5,293.8,326.3,304.6,318.9,325.4z"
			/>
	</g>
	<g>
		<path class="st0" d="M433.7,192.8c-1,0.3-67.4,37.4-67.4,37.4s-7.3,23.1-10.9,61.3c-0.5,5.3-1.6,10.6-3.4,15.7l-20.3,59.7
			l71.2-52.7l-53.7,27.8c0,0,14.3-36,16.8-54.9c0.1-0.8,0.5-1.6,1.1-2.1l36.1-33.6l-33.9,15c0,0,0-23.3,8.9-28.7L433.7,192.8z"/>
	</g>
	<g>
		<path class="st0" d="M763.5,223.2c-1,0.3-67.4,37.4-67.4,37.4s-7.3,23.1-10.9,61.3c-0.5,5.3-1.6,10.6-3.4,15.7l-20.3,59.7
			l71.2-52.7l-53.7,27.8c0,0,14.3-36,16.8-54.9c0.1-0.8,0.5-1.6,1.1-2.1l36.1-33.6l-33.9,15c0,0,0-23.3,8.9-28.7L763.5,223.2z"/>
	</g>
	<g>
		<path class="st0" d="M406.4,262.5c0,0,21.8,12.5,4.1,47s-7.2,65.2-32.6,65.7c0,0,13.7,22.4,28.3-24.9
			c11.1-35.9,22.7-60.1,27.6-69.8c1.7-3.4,5.7-5,9.3-3.8c8,2.8,19,13.6,7.9,54c0,0,38.3-56.2-16-64.5c-2.8-0.4-5.6,0.1-7.9,1.7
			c-1.6,1.1-2.9,2.7-3.2,5C423.8,272.9,417.4,261.9,406.4,262.5z"/>
	</g>
	<g>
		<path class="st0" d="M504.6,157.8c11,11.5,6.2,24.4,6.2,24.4s-34.5-41.7-63.7-3.4c-21.5,28.2,1.6,69.9,15.3,89.9
			c6,8.8,9.1,19.2,8.8,29.8c-0.7,22.3-4.6,59.2-22.7,76.4c-26.8,25.7-4.9-81.2-5.7-79.3c-19.1,44.4-22.7,70.4-22.8,83.3
			c-0.1,7.2,2.1,14.4,6.6,20.1c10.5,13.3,22.4,6.8,30.6-0.8c5.2-4.9,9.3-10.8,12.4-17.3c8.8-18.5,36.6-78.2,53.7-135.5
			C543.9,176.5,504.6,157.8,504.6,157.8z M469.6,207.2c-1.6,12.9-8.8,22.6-16.1,21.6c-7.3-0.9-4.9-10.4-3.3-23.3
			c1.6-12.9,1.8-24.2,9.1-23.3C466.6,183.2,471.2,194.3,469.6,207.2z M486.5,292c-7.3,0.8-5.7-4.3-7.5-22.4
			c-1.9-18.1-19.4-37,2.3-40.7c20.4-3.5,9.5,22.8,11.3,40.9C494.4,288,493.8,291.3,486.5,292z M504.5,221c-6.7,3.1-16.5-4-21.9-15.8
			c-5.4-11.8-4.4-23.8,2.3-26.9c6.7-3.1,9.1,8,14.5,19.8C504.8,209.9,511.2,217.9,504.5,221z"/>
	</g>
	<g>
		<path class="st0" d="M541.7,171.5c0,0,0.3,116.8-62.7,221.6c0,0,26.9-13.4,57.7-100.1c1.1-3,3.5-5.5,6.6-6.3
			c2.9-0.8,5.7,0,4.9,6.8c-0.3,2.9-1.2,5.7-2.5,8.3c-8,16.4-45.6,97.4,2.7,75.8c0,0-28.1,5.7-6.8-34.6c0,0,34.8-55.1,6.8-69
			c0,0-8-3.2-13.5,5.5C534.7,279.5,553.4,228.5,541.7,171.5z"/>
	</g>
	<g>
		<path class="st0" d="M620.3,251.2c-0.3-0.9-0.7-1.8-1.3-2.6c-3.1-4.9-14.5-20.3-32.3-7.4c-1.3,1-2.7,1.9-4.1,2.8
			c-7.1,4.3-30.4,20.8-16.5,45.6c16.3,29,38.8,10.8,38.8,10.8S632.6,286,620.3,251.2z M600.4,291.4c0,0-14.1,11.4-24.4-6.8
			c-8.7-15.5,5.9-25.9,10.4-28.6c0.9-0.5,1.7-1.1,2.6-1.7c11.2-8.1,18.3,1.5,20.2,4.6c0.3,0.5,0.6,1.1,0.8,1.6
			C617.7,282.5,600.4,291.4,600.4,291.4z"/>
	</g>
	<g>
		<path class="st0" d="M550.6,368.7c0,0,81.1-53.8,97.6-107.4c3.7-12.2-1.9-25.4-13.5-30.5c-4.5-2-10.5-2.4-17.7-4.5
			c-16.3-4.8-21.8-11.8-22.2-20.2c-0.3-7.8,5.5-14.5,12.2-18.5c14.8-9,29.7-14.6,79-11.1c0,0-58.4,9.4-72.2,23.5
			c-3.5,3.5-1.8,9.5,2.9,11.1c15,4.9,58.5,18.1,47,58.7C649.6,319.2,550.6,368.7,550.6,368.7z"/>
	</g>
	<g>
		<path class="st0" d="M531.1,151.8l20.4,3.8c0,0,0,0,0,0c0.9,0.3,42.1,11.1,87.6,5.2c5.3-0.7,10.7-0.4,15.9,0.7
			c10.9,2.4,30.4,6.4,44.9,8.6c0.4,0.1,0.7,0.5,0.6,0.9c-0.9,2.9-3.9,13.1-4.6,27.2c-0.2,3.2-0.8,6.3-1.9,9.3
			c-11.9,31.2-79.8,208.9-79,208.7c1-0.2,15.1-38.3,37.1-57.5c17.7-15.4,22.9-56.2,24.2-71.6c0.4-4,1.6-7.9,3.5-11.5
			c7.6-13.6,26.7-49.6,30.7-74.8c5-31.6,4.8-28.3,4.8-28.3s21.8,3.4,31.6,0.5c7.7-2.3,42.7,6.7,57.3,10.7c0.9,0.2,1.3-1,0.5-1.4
			c-10.5-5.3-34-16-59.5-19.3c-3.8-0.5-7.6-0.6-11.5-0.3c-4.7,0.3-12.7-0.1-16.6-5.3c-0.1-0.1-0.2-0.3-0.2-0.5l1.5-57.6
			c0-0.9-1.3-1.1-1.5-0.2c-1.5,7.1-3.6,16.5-3.9,17.1c-0.3,0.6-1.8-5.4-2.8-9.8c-0.2-0.8-1.4-0.7-1.4,0.1l-5.2,49.9
			c0,0.4-0.4,0.7-0.8,0.7c-4.2-0.7-25.2-3.9-47.4-6.1c-4.6-0.5-9.1-0.5-13.7-0.2c-14,0.9-48,2.5-64-1.8c-5.2-1.4-10.6-2-15.9-1.5
			l-30.8,2.9C530.3,150.4,530.3,151.7,531.1,151.8z"/>
	</g>
</g>
<g id="Layer_5" class="st1">
	<rect x="237.3" y="395.1" class="st2" width="335" height="57"/>
	<text transform="matrix(1 0 0 1 237.2936 415.8376)" class="st3 st4 st5">Paranormal podcast</text>
</g>
<g id="icon" class="st1">
	<path class="st3" d="M439,173.3L439,173.3c-1.9,0-3.5,1.4-3.7,3.3c-2.7,20.3-10.9,35.6-36.2,35.6c-25.3,0-33-15.2-35.2-35.5
		c-0.2-1.9-1.8-3.4-3.7-3.4h-0.1c-2.2,0-4,2-3.7,4.2c2.8,22.4,10.7,38.3,34.4,41.2c1.9,0.2,3.4,1.8,3.4,3.7v7.4
		c0,2.1-1.7,3.8-3.8,3.8h-12.6c-2.1,0-3.8,1.7-3.8,3.8v3c0,2.1,1.7,3.8,3.8,3.8H394h10.5H421c2.1,0,3.8-1.7,3.8-3.8v-3
		c0-2.1-1.7-3.8-3.8-3.8h-12.8c-2.1,0-3.8-1.7-3.8-3.8v-7.5c0-1.9,1.4-3.5,3.3-3.7c23.3-3.1,31.6-18.9,34.9-41.1
		C443,175.3,441.2,173.3,439,173.3z"/>
	<path class="st3" d="M437.1,123.6c-1.2-2.9-2.2-4.6-2.9-5.5c-0.4-0.6-0.6-1.3-0.5-2c0.5-3,1.1-11.2-4.7-15.6
		c-0.3-0.2-0.5-0.6-0.6-0.9l-1.9-12l-2.1,9.1c0,0.1-0.2,0.2-0.3,0.1c-0.5-0.6-1.8-2.2-3.9-3.3c-0.3-0.2-0.6-0.5-0.6-0.9l-1.2-15.6
		L414.9,90c-0.1,0.4-0.5,0.6-0.9,0.4c-0.7-0.3-1.8-0.8-3.1-0.9c-0.4,0-0.8-0.3-0.8-0.8l-3.5-19.4L402.2,88c-0.1,0.4-0.4,0.6-0.8,0.6
		c-1.9-0.1-7.6-0.4-11,1.2c-0.4,0.2-0.8-0.1-0.9-0.5l-2.1-11.9L376.8,126l-1.4-38.5c-0.4,0.6-3.6,11.4-3.6,11.4s-6.1,3.9-6.6,9.6
		c-0.4,5.7-1.3,10-1.3,10s-4.6,7-1.4,11c0,0,0.2,2.6,2.3,4.3c0.4,0.3,0.6,0.8,0.6,1.3c-0.1,1.7-0.2,5.6,1.8,7.9
		c0.5,0.7,0.6,1.6,0,2.2c-1.6,1.8-3.8,5.3,0,8.4c0.7,0.6,1.2,1.4,1.3,2.4l3.9,17.4l2.9-15l3.6,1.1l7.8,40.1l4.4-28.7l10.4,0.1
		l2.1,7.8l5.6-26.6l3.4,22.4l5.6-15.5l2.1,36.2l7.1-37.8c0.1-0.8,0.6-1.5,1.4-1.9c0.9-0.5,2.2-1.3,3.2-2.6c1.9-2.6,1.2-6.5-1.7-8.1
		c-0.4-0.2-0.9-0.4-1.4-0.5c0,0,5.2-2.7,4.4-4.7c-0.4-1.1-0.8-2.8-1.1-4.1c-0.2-1,0.1-2,0.8-2.7
		C435.1,131.2,438.6,127.2,437.1,123.6z M406.2,82.1c3.1,24.8,0.3,38.7,0.3,38.7C402.3,103,406.2,82.1,406.2,82.1z M389.4,146.6
		l-3.6,20.2l-1.7-17.3c-0.1-1-1-1.7-2-1.6c-7.1,0.5-7.9-5.1-7.9-7.9c0-0.9,0.6-1.7,1.5-2.1l7.5-2.8c0.9-0.3,1.5-1.1,1.6-2l3.5-27.6
		l1.2,26.4c0,0.9,0.4,1.7,1.1,2.2l1.5,1.3c0.7,0.6,1.2,1.5,1.2,2.5c0.2,4.5-1.6,6.3-2.7,7C390,145.3,389.5,145.9,389.4,146.6z
		 M397.5,161.5c-1.5-0.9-2.4-1.8-2.9-2.7c-0.8-1.3-0.6-2.9,0.4-4c1.4-1.7,1.7-4,1.7-4s-0.3-4.2,2.5-4.2s2.7,4.3,2.7,4.3
		c0,1.6,0.9,3,1.6,3.8c0.8,0.9,1.2,2.2,0.8,3.3c-0.7,1.9-2.1,2.9-3.3,3.5C399.8,162.2,398.6,162.1,397.5,161.5z M420.3,148.8
		l-1.6,6.4l-2.9-6c-0.3-0.6-0.8-1.1-1.5-1.3c-7.6-2-9.2-6.4-9.5-9c-0.1-1.2,0.4-2.3,1.3-3l3.1-2.6c0.6-0.5,1.5-0.6,2.2-0.3l3.9,1.9
		c0.8,0.4,1.8-0.1,2-1l3.8-17.7l0.1,19.6c0,0.8,0.5,1.5,1.3,1.8l0.3,0.1c0.9,0.3,1.4,1.2,1.4,2.1c-0.1,5.2-1.8,6.8-2.8,7.3
		C420.9,147.5,420.5,148.1,420.3,148.8z"/>
</g>
<g id="Layer_4">
</g>
</svg>
