<?xml version="1.0" encoding="utf-8"?>
<!-- Generator: Adobe Illustrator 26.5.0, SVG Export Plug-In . SVG Version: 6.00 Build 0)  -->
<svg version="1.1" id="Layer_1" xmlns="http://www.w3.org/2000/svg" xmlns:xlink="http://www.w3.org/1999/xlink" x="0px" y="0px"
	 viewBox="0 0 1349 96" style="enable-background:new 0 0 1349 96;" xml:space="preserve">
<style type="text/css">
	.st0{fill:#CC0066;}
</style>
<path class="st0" d="M40.7,34.05V59.8c0,1.66,1.35,3.01,3.01,3.01c1.66,0,3.01-1.35,3.01-3.01V34.05H40.7z"/>
<path class="st0" d="M32.67,48.43v25.75c0,1.66,1.35,3.01,3.01,3.01c1.66,0,3.01-1.35,3.01-3.01V48.43H32.67z"/>
<path class="st0" d="M41.87,20.89L6.2,33.27c-0.01,0.26-0.02,0.52-0.02,0.79c0,11.2,9.08,20.27,20.27,20.27s20.27-9.08,20.27-20.27
	C46.72,29.03,44.89,24.43,41.87,20.89z"/>
<polygon class="st0" points="6.04,31.39 41.65,19.17 35.57,1.63 26.95,14.2 15.08,0 15.2,18.7 0,13.97 "/>
<g>
	<path class="st0" d="M32.67,59.32l4.88-6.56c-1.49,1.08-3.13,1.95-4.88,2.6V59.32z"/>
	<path class="st0" d="M30.68,55.97c-1.6,0.41-3.27,0.62-4.99,0.62c-9.82,0-18-6.98-19.87-16.25L5.41,96l25.27-33.99V55.97z"/>
</g>
<path class="st0" d="M87.42,34.05V59.8c0,1.66,1.35,3.01,3.01,3.01c1.66,0,3.01-1.35,3.01-3.01V34.05H87.42z"/>
<path class="st0" d="M79.4,48.43v25.75c0,1.66,1.35,3.01,3.01,3.01s3.01-1.35,3.01-3.01V48.43H79.4z"/>
<path class="st0" d="M88.59,20.89L52.92,33.27c-0.01,0.26-0.02,0.52-0.02,0.79c0,11.2,9.08,20.27,20.27,20.27
	s20.27-9.08,20.27-20.27C93.45,29.03,91.62,24.43,88.59,20.89z"/>
<polygon class="st0" points="52.77,31.39 88.38,19.17 82.29,1.63 73.67,14.2 61.8,0 61.92,18.7 46.72,13.97 "/>
<g>
	<path class="st0" d="M79.4,59.32l4.88-6.56c-1.49,1.08-3.13,1.95-4.88,2.6V59.32z"/>
	<path class="st0" d="M77.4,55.97c-1.6,0.41-3.27,0.62-4.99,0.62c-9.82,0-18-6.98-19.87-16.25L52.13,96L77.4,62.01V55.97z"/>
</g>
<path class="st0" d="M134.15,34.05V59.8c0,1.66,1.35,3.01,3.01,3.01c1.66,0,3.01-1.35,3.01-3.01V34.05H134.15z"/>
<path class="st0" d="M126.12,48.43v25.75c0,1.66,1.35,3.01,3.01,3.01c1.66,0,3.01-1.35,3.01-3.01V48.43H126.12z"/>
<path class="st0" d="M135.31,20.89L99.65,33.27c-0.01,0.26-0.02,0.52-0.02,0.79c0,11.2,9.08,20.27,20.27,20.27
	s20.27-9.08,20.27-20.27C140.17,29.03,138.34,24.43,135.31,20.89z"/>
<polygon class="st0" points="99.49,31.39 135.1,19.17 129.02,1.63 120.4,14.2 108.53,0 108.64,18.7 93.45,13.97 "/>
<g>
	<path class="st0" d="M126.12,59.32l4.88-6.56c-1.49,1.08-3.13,1.95-4.88,2.6V59.32z"/>
	<path class="st0" d="M124.12,55.97c-1.6,0.41-3.27,0.62-4.99,0.62c-9.82,0-18-6.98-19.87-16.25L98.86,96l25.27-33.99V55.97z"/>
</g>
<rect x="180.87" y="46.9" class="st0" width="8.78" height="3"/>
<rect x="198.43" y="46.9" class="st0" width="8.78" height="3"/>
<rect x="215.99" y="46.9" class="st0" width="8.78" height="3"/>
<rect x="233.55" y="46.9" class="st0" width="8.78" height="3"/>
<rect x="251.11" y="46.9" class="st0" width="8.78" height="3"/>
<rect x="268.67" y="46.9" class="st0" width="8.78" height="3"/>
<rect x="286.23" y="46.9" class="st0" width="8.78" height="3"/>
<rect x="303.79" y="46.9" class="st0" width="8.78" height="3"/>
<rect x="321.35" y="46.93" class="st0" width="8.78" height="3"/>
<rect x="338.91" y="46.93" class="st0" width="8.78" height="3"/>
<rect x="356.47" y="46.93" class="st0" width="8.78" height="3"/>
<rect x="374.02" y="46.93" class="st0" width="8.78" height="3"/>
<rect x="391.58" y="46.93" class="st0" width="8.78" height="3"/>
<rect x="409.14" y="46.93" class="st0" width="8.78" height="3"/>
<rect x="426.7" y="46.93" class="st0" width="8.78" height="3"/>
<rect x="444.26" y="46.93" class="st0" width="8.78" height="3"/>
<rect x="461.82" y="46.93" class="st0" width="8.78" height="3"/>
<rect x="479.38" y="46.93" class="st0" width="8.78" height="3"/>
<rect x="496.94" y="46.93" class="st0" width="8.78" height="3"/>
<rect x="514.5" y="46.93" class="st0" width="8.78" height="3"/>
<rect x="532.06" y="46.93" class="st0" width="8.78" height="3"/>
<rect x="549.62" y="46.93" class="st0" width="8.78" height="3"/>
<rect x="567.18" y="46.93" class="st0" width="8.78" height="3"/>
<rect x="584.74" y="46.93" class="st0" width="8.78" height="3"/>
<rect x="602.3" y="46.96" class="st0" width="8.78" height="3"/>
<rect x="619.86" y="46.96" class="st0" width="8.78" height="3"/>
<rect x="637.42" y="46.96" class="st0" width="8.78" height="3"/>
<rect x="654.98" y="46.96" class="st0" width="8.78" height="3"/>
<rect x="672.54" y="46.96" class="st0" width="8.78" height="3"/>
<rect x="690.1" y="46.96" class="st0" width="8.78" height="3"/>
<rect x="707.66" y="46.96" class="st0" width="8.78" height="3"/>
<rect x="725.22" y="46.96" class="st0" width="8.78" height="3"/>
<rect x="742.77" y="46.95" class="st0" width="8.78" height="3"/>
<rect x="760.33" y="46.95" class="st0" width="8.78" height="3"/>
<rect x="777.89" y="46.95" class="st0" width="8.78" height="3"/>
<rect x="795.45" y="46.95" class="st0" width="8.78" height="3"/>
<rect x="813.01" y="46.95" class="st0" width="8.78" height="3"/>
<rect x="830.57" y="46.95" class="st0" width="8.78" height="3"/>
<rect x="848.13" y="46.95" class="st0" width="8.78" height="3"/>
<rect x="865.69" y="46.95" class="st0" width="8.78" height="3"/>
<rect x="883.25" y="46.98" class="st0" width="8.78" height="3"/>
<rect x="900.81" y="46.98" class="st0" width="8.78" height="3"/>
<rect x="918.37" y="46.98" class="st0" width="8.78" height="3"/>
<rect x="935.93" y="46.98" class="st0" width="8.78" height="3"/>
<rect x="953.49" y="46.98" class="st0" width="8.78" height="3"/>
<rect x="971.05" y="46.98" class="st0" width="8.78" height="3"/>
<rect x="988.61" y="46.98" class="st0" width="8.78" height="3"/>
<rect x="1006.17" y="46.98" class="st0" width="8.78" height="3"/>
<rect x="1023.73" y="46.96" class="st0" width="8.78" height="3"/>
<rect x="1041.29" y="46.96" class="st0" width="8.78" height="3"/>
<rect x="1058.85" y="46.96" class="st0" width="8.78" height="3"/>
<rect x="1076.41" y="46.96" class="st0" width="8.78" height="3"/>
<rect x="1093.96" y="46.96" class="st0" width="8.78" height="3"/>
<rect x="1111.52" y="46.96" class="st0" width="8.78" height="3"/>
<rect x="1129.08" y="46.96" class="st0" width="8.78" height="3"/>
<rect x="1146.64" y="46.96" class="st0" width="8.78" height="3"/>
<rect x="1164.2" y="47" class="st0" width="8.78" height="3"/>
<rect x="1181.76" y="47" class="st0" width="8.78" height="3"/>
<rect x="1199.32" y="47" class="st0" width="8.78" height="3"/>
<rect x="1216.88" y="47" class="st0" width="8.78" height="3"/>
<rect x="1234.44" y="47" class="st0" width="8.78" height="3"/>
<rect x="1252" y="47" class="st0" width="8.78" height="3"/>
<rect x="1269.56" y="47" class="st0" width="8.78" height="3"/>
<rect x="1287.12" y="47" class="st0" width="8.78" height="3"/>
<rect x="1304.68" y="47" class="st0" width="8.78" height="3"/>
</svg>
