<?xml version="1.0" encoding="utf-8"?>
<!-- Generator: Adobe Illustrator 27.0.1, SVG Export Plug-In . SVG Version: 6.00 Build 0)  -->
<svg version="1.1" id="Layer_1" xmlns="http://www.w3.org/2000/svg" xmlns:xlink="http://www.w3.org/1999/xlink" x="0px" y="0px"
	 viewBox="0 0 828 576" style="enable-background:new 0 0 828 576;" xml:space="preserve">
<style type="text/css">
	.st0{display:none;}
	.st1{display:inline;}
	.st2{fill:#0D0D0D;}
	.st3{display:inline;fill:none;}
	.st4{font-family:'Chainprinter-Regular';}
	.st5{font-size:27.5908px;}
	.st6{fill:#F24B0F;}
	.st7{fill:#FFFFFF;}
</style>
<g id="type" class="st0">
	<g class="st1">
		<path class="st2" d="M363.8,386.8"/>
	</g>
	<g class="st1">
		<path class="st2" d="M32.2,452.4c0,0,30-115.6,33.2-151.4c0,0,45-3.8,64.8-34.5c0,0-20.4,14.7-62,13.1c0,0,13.9-106.2,58.6-135.5
			c4.6-3,10.1-4.3,15.4-3c8.8,2.1,19.8,10.8,15.4,42.3c0,0,22.2-25.7-3-50.7c-3.9-3.8-8.7-6.5-14.1-7.3
			c-10.8-1.6-29.3,1.7-49.3,32.6c-8.8,13.7-15.1,28.8-19,44.6L53,280.9c0,0-29.1,5.4-43.1,29.4c0,0,26.2-11.8,38.3-5.7l-7.9,73
			L32.2,452.4z"/>
	</g>
	<g class="st1">
		<path class="st2" d="M156.2,205.5c0,0-28.1,100.3-105.4,246.9c0,0,80.4-28.9,119.8-22.1c35.5,6.1,186.2-32.8,199-47.2
			c0,0-184.3,43.2-210.7,35.1c-24-7.3-81.2,10.3-83.7,12.2S138.3,312.2,156.2,205.5z"/>
	</g>
	<g class="st1">
		<path class="st2" d="M184.3,295.8C144.1,280,122.1,343,122.1,343s21-34.1,47.6-37.1c12.2-1.4,22.1,10.5,17.7,22
			c0,0.1-0.1,0.1-0.1,0.2c-0.7,1.7-2.5,2.7-4.3,2.3c-9.4-2-44.4-6.3-56,36.3c-2.3,8.4,2.9,17.2,11.4,18.7
			c9.7,1.8,25.8-3.7,51.1-32.6C189.4,352.8,224.6,311.6,184.3,295.8z M163.5,365.1c-13.8,12.5-20.3,10-22.5,7.6s-4.4-10.7,9.4-23.1
			c13.8-12.5,22.7-11.8,24.9-9.3C177.6,342.6,177.3,352.6,163.5,365.1z"/>
	</g>
	<g class="st1">
		<path class="st2" d="M235.8,293.2c-3.8,0.4,39.4-85.3-25.7-107.5c0,0,37.5,20.2,25.6,68.3c-7.9,31.8-18.7,65.8-25.5,86.4
			c-5.6,17.1,7.1,35.1,25.1,34.5c11.4-0.3,23.7-8.3,32.7-34.1C290,277.4,235.8,293.2,235.8,293.2z M251.2,336.9
			c-7.3,20.8-15.9,21.9-19.7,20.5c-3.9-1.4-11.3-8.9-3.9-29.7c7.3-20.8,17.5-25.1,21.4-23.8C252.7,305.3,258.5,316,251.2,336.9z"/>
	</g>
	<g class="st1">
		<path class="st2" d="M742.5,350c5.7,26.7,16.9,36.1,28.2,37.9c17.8,2.8,32.7-13.5,29.2-31.2c-4.2-21.3-10.7-56.4-14.6-88.9
			c-5.9-49.2,33.8-64.7,33.8-64.7C751.8,217,784,307.4,780.3,306.6C780.3,306.6,728.5,284.2,742.5,350z M766,315.6
			c4-0.9,13.6,4.6,18.2,26.2c4.7,21.6-3.6,28.1-7.6,29s-12.4-1.2-17-22.8C754.9,326.4,762,316.4,766,315.6z"/>
	</g>
	<g class="st1">
		<path class="st2" d="M303.5,281.8c-3.8,0.4,39.4-85.3-25.7-107.5c0,0,37.5,20.2,25.6,68.3c-7.9,31.8-18.7,65.8-25.5,86.4
			c-5.6,17.1,7.1,35.1,25.1,34.5c11.4-0.3,23.7-8.3,32.7-34.1C357.7,266,303.5,281.8,303.5,281.8z M318.9,325.4
			c-7.3,20.8-15.9,21.9-19.7,20.5c-3.9-1.4-11.3-8.9-3.9-29.7c7.3-20.8,17.5-25.1,21.4-23.8C320.5,293.8,326.3,304.6,318.9,325.4z"
			/>
	</g>
	<g class="st1">
		<path class="st2" d="M433.7,192.8c-1,0.3-67.4,37.4-67.4,37.4s-7.3,23.1-10.9,61.3c-0.5,5.3-1.6,10.6-3.4,15.7l-20.3,59.7
			l71.2-52.7L349.2,342c0,0,14.3-36,16.8-54.9c0.1-0.8,0.5-1.6,1.1-2.1l36.1-33.6l-33.9,15c0,0,0-23.3,8.9-28.7L433.7,192.8z"/>
	</g>
	<g class="st1">
		<path class="st2" d="M763.5,223.2c-1,0.3-67.4,37.4-67.4,37.4s-7.3,23.1-10.9,61.3c-0.5,5.3-1.6,10.6-3.4,15.7l-20.3,59.7
			l71.2-52.7L679,372.4c0,0,14.3-36,16.8-54.9c0.1-0.8,0.5-1.6,1.1-2.1l36.1-33.6l-33.9,15c0,0,0-23.3,8.9-28.7L763.5,223.2z"/>
	</g>
	<g class="st1">
		<path class="st2" d="M406.4,262.5c0,0,21.8,12.5,4.1,47s-7.2,65.2-32.6,65.7c0,0,13.7,22.4,28.3-24.9
			c11.1-35.9,22.7-60.1,27.6-69.8c1.7-3.4,5.7-5,9.3-3.8c8,2.8,19,13.6,7.9,54c0,0,38.3-56.2-16-64.5c-2.8-0.4-5.6,0.1-7.9,1.7
			c-1.6,1.1-2.9,2.7-3.2,5C423.8,272.9,417.4,261.9,406.4,262.5z"/>
	</g>
	<g class="st1">
		<path class="st2" d="M504.6,157.8c11,11.5,6.2,24.4,6.2,24.4s-34.5-41.7-63.7-3.4c-21.5,28.2,1.6,69.9,15.3,89.9
			c6,8.8,9.1,19.2,8.8,29.8c-0.7,22.3-4.6,59.2-22.7,76.4c-26.8,25.7-4.9-81.2-5.7-79.3C423.7,340,420.1,366,420,378.9
			c-0.1,7.2,2.1,14.4,6.6,20.1c10.5,13.3,22.4,6.8,30.6-0.8c5.2-4.9,9.3-10.8,12.4-17.3c8.8-18.5,36.6-78.2,53.7-135.5
			C543.9,176.5,504.6,157.8,504.6,157.8z M469.6,207.2c-1.6,12.9-8.8,22.6-16.1,21.6c-7.3-0.9-4.9-10.4-3.3-23.3
			c1.6-12.9,1.8-24.2,9.1-23.3C466.6,183.2,471.2,194.3,469.6,207.2z M486.5,292c-7.3,0.8-5.7-4.3-7.5-22.4
			c-1.9-18.1-19.4-37,2.3-40.7c20.4-3.5,9.5,22.8,11.3,40.9C494.4,288,493.8,291.3,486.5,292z M504.5,221c-6.7,3.1-16.5-4-21.9-15.8
			s-4.4-23.8,2.3-26.9c6.7-3.1,9.1,8,14.5,19.8C504.8,209.9,511.2,217.9,504.5,221z"/>
	</g>
	<g class="st1">
		<path class="st2" d="M541.7,171.5c0,0,0.3,116.8-62.7,221.6c0,0,26.9-13.4,57.7-100.1c1.1-3,3.5-5.5,6.6-6.3
			c2.9-0.8,5.7,0,4.9,6.8c-0.3,2.9-1.2,5.7-2.5,8.3c-8,16.4-45.6,97.4,2.7,75.8c0,0-28.1,5.7-6.8-34.6c0,0,34.8-55.1,6.8-69
			c0,0-8-3.2-13.5,5.5C534.7,279.5,553.4,228.5,541.7,171.5z"/>
	</g>
	<g class="st1">
		<path class="st2" d="M620.3,251.2c-0.3-0.9-0.7-1.8-1.3-2.6c-3.1-4.9-14.5-20.3-32.3-7.4c-1.3,1-2.7,1.9-4.1,2.8
			c-7.1,4.3-30.4,20.8-16.5,45.6c16.3,29,38.8,10.8,38.8,10.8S632.6,286,620.3,251.2z M600.4,291.4c0,0-14.1,11.4-24.4-6.8
			c-8.7-15.5,5.9-25.9,10.4-28.6c0.9-0.5,1.7-1.1,2.6-1.7c11.2-8.1,18.3,1.5,20.2,4.6c0.3,0.5,0.6,1.1,0.8,1.6
			C617.7,282.5,600.4,291.4,600.4,291.4z"/>
	</g>
	<g class="st1">
		<path class="st2" d="M550.6,368.7c0,0,81.1-53.8,97.6-107.4c3.7-12.2-1.9-25.4-13.5-30.5c-4.5-2-10.5-2.4-17.7-4.5
			c-16.3-4.8-21.8-11.8-22.2-20.2c-0.3-7.8,5.5-14.5,12.2-18.5c14.8-9,29.7-14.6,79-11.1c0,0-58.4,9.4-72.2,23.5
			c-3.5,3.5-1.8,9.5,2.9,11.1c15,4.9,58.5,18.1,47,58.7C649.6,319.2,550.6,368.7,550.6,368.7z"/>
	</g>
	<g class="st1">
		<path class="st2" d="M531.1,151.8l20.4,3.8l0,0c0.9,0.3,42.1,11.1,87.6,5.2c5.3-0.7,10.7-0.4,15.9,0.7c10.9,2.4,30.4,6.4,44.9,8.6
			c0.4,0.1,0.7,0.5,0.6,0.9c-0.9,2.9-3.9,13.1-4.6,27.2c-0.2,3.2-0.8,6.3-1.9,9.3c-11.9,31.2-79.8,208.9-79,208.7
			c1-0.2,15.1-38.3,37.1-57.5c17.7-15.4,22.9-56.2,24.2-71.6c0.4-4,1.6-7.9,3.5-11.5c7.6-13.6,26.7-49.6,30.7-74.8
			c5-31.6,4.8-28.3,4.8-28.3s21.8,3.4,31.6,0.5c7.7-2.3,42.7,6.7,57.3,10.7c0.9,0.2,1.3-1,0.5-1.4c-10.5-5.3-34-16-59.5-19.3
			c-3.8-0.5-7.6-0.6-11.5-0.3c-4.7,0.3-12.7-0.1-16.6-5.3c-0.1-0.1-0.2-0.3-0.2-0.5l1.5-57.6c0-0.9-1.3-1.1-1.5-0.2
			c-1.5,7.1-3.6,16.5-3.9,17.1c-0.3,0.6-1.8-5.4-2.8-9.8c-0.2-0.8-1.4-0.7-1.4,0.1l-5.2,49.9c0,0.4-0.4,0.7-0.8,0.7
			c-4.2-0.7-25.2-3.9-47.4-6.1c-4.6-0.5-9.1-0.5-13.7-0.2c-14,0.9-48,2.5-64-1.8c-5.2-1.4-10.6-2-15.9-1.5l-30.8,2.9
			C530.3,150.4,530.3,151.7,531.1,151.8z"/>
	</g>
</g>
<g id="Layer_5" class="st0">
	<rect x="237.3" y="395.1" class="st3" width="335" height="57"/>
	<text transform="matrix(1 0 0 1 237.2936 415.8376)" class="st1 st4 st5">Paranormal podcast</text>
</g>
<g id="icon">
	<path class="st6" d="M195.6,372.7L195.6,372.7c-4.2,0-7.7,3.1-8.3,7.3c-6,45.2-24.2,79.1-80.7,79.1c-56.4,0-73.5-33.8-78.4-78.9
		c-0.5-4.2-4-7.5-8.3-7.5h-0.2c-5,0-8.9,4.4-8.3,9.4c6.2,49.9,23.7,85.3,76.6,91.8c4.2,0.5,7.5,4,7.5,8.3v16.5
		c0,4.6-3.7,8.4-8.4,8.4H59c-4.6,0-8.4,3.7-8.4,8.4v6.6c0,4.6,3.7,8.4,8.4,8.4h36.4h23.3H1152c4.6,0,8.4-3.7,8.4-8.4v-6.6
		c0-4.6-3.7-8.4-8.4-8.4H127.2c-4.6,0-8.4-3.7-8.4-8.4V482c0-4.2,3.2-7.7,7.4-8.3c51.9-6.9,70.4-42.1,77.7-91.4
		C204.6,377.2,200.7,372.7,195.6,372.7z"/>
	<path class="st7" d="M191.5,262.1c-2.7-6.4-5-10.3-6.4-12.3c-0.9-1.3-1.3-2.9-1.1-4.5c1-6.7,2.5-25-10.5-34.8
		c-0.7-0.5-1.2-1.3-1.3-2.1l-4.2-26.6l-4.6,20.2c-0.1,0.3-0.4,0.4-0.6,0.1c-1-1.4-4-4.8-8.8-7.3c-0.8-0.4-1.3-1.2-1.4-2l-2.7-34.8
		l-7.8,29.4c-0.2,0.8-1.2,1.3-1.9,0.9c-1.5-0.8-4-1.8-6.8-2c-0.9-0.1-1.7-0.8-1.9-1.7l-7.7-43.1l-10,41.4c-0.2,0.8-1,1.4-1.8,1.3
		c-4.3-0.3-16.9-0.8-24.6,2.8c-0.8,0.4-1.7-0.1-1.9-1l-4.7-26.4L57.3,267.5l-3.2-85.7c-1,1.3-7.9,25.4-7.9,25.4s-13.7,8.6-14.6,21.3
		c-0.9,12.7-2.9,22.2-2.9,22.2s-10.2,15.6-3.2,24.4c0,0,0.5,5.8,5.2,9.5c0.9,0.7,1.4,1.8,1.3,2.9c-0.3,3.8-0.4,12.4,3.9,17.6
		c1.2,1.5,1.2,3.5,0,4.9c-3.5,3.9-8.5,11.8,0.1,18.8c1.6,1.3,2.7,3.2,3,5.2l8.7,38.7l6.4-33.5l7.9,2.5l17.4,89.2l9.9-63.8l23.2,0.3
		l4.8,17.5l12.5-59.1l7.5,49.9l12.4-34.6l4.7,80.6l15.7-84.2c0.3-1.8,1.4-3.4,3.1-4.2c2-1,4.9-2.9,7-5.9c4.3-5.8,2.6-14.4-3.7-18
		c-0.9-0.5-2-0.9-3-1.1c0,0,11.5-6,9.9-10.5c-0.9-2.5-1.8-6.3-2.4-9c-0.5-2.2,0.2-4.4,1.8-5.9C186.9,278.9,194.8,270.1,191.5,262.1z
		 M122.7,169.7c6.9,55.2,0.7,86.1,0.7,86.1C114,216.2,122.7,169.7,122.7,169.7z M85.3,313.3l-8.1,45.1L73.3,320
		c-0.2-2.2-2.2-3.7-4.4-3.6c-15.7,1-17.6-11.3-17.6-17.5c0-2.1,1.3-3.9,3.2-4.6l16.6-6.3c1.9-0.7,3.3-2.4,3.5-4.5l7.8-61.5l2.7,58.7
		c0.1,1.9,1,3.7,2.4,5l3.4,2.9c1.6,1.4,2.6,3.4,2.7,5.5c0.3,9.9-3.5,14-6,15.5C86.6,310.5,85.6,311.8,85.3,313.3z M103.4,346.5
		c-3.3-1.9-5.3-4.1-6.5-6c-1.7-2.8-1.3-6.4,0.8-9c3.1-3.7,3.8-8.8,3.8-8.8s-0.6-9.4,5.5-9.4c6.2,0,5.9,9.7,5.9,9.7
		c0,3.7,1.9,6.6,3.6,8.5c1.8,2,2.6,4.9,1.7,7.4c-1.5,4.1-4.7,6.5-7.4,7.9C108.5,348,105.7,347.8,103.4,346.5z M154.1,318.1
		l-3.6,14.3l-6.4-13.4c-0.7-1.4-1.9-2.5-3.4-2.9c-16.9-4.5-20.5-14.2-21-19.9c-0.2-2.6,0.8-5.1,2.8-6.8l7-5.8
		c1.4-1.1,3.3-1.4,4.9-0.6l8.6,4.2c1.9,0.9,4.1-0.2,4.5-2.2l8.5-39.3l0.3,43.7c0,1.8,1.1,3.4,2.8,4.1l0.6,0.2
		c1.9,0.8,3.2,2.6,3.2,4.7c-0.2,11.5-3.9,15.2-6.2,16.3C155.4,315.4,154.5,316.7,154.1,318.1z"/>
</g>
<g id="Layer_4">
</g>
</svg>
